<svg xmlns="http://www.w3.org/2000/svg" viewBox="0 0 440 280">
  <defs>
    <linearGradient id="bg" x1="38" y1="18" x2="402" y2="266" gradientUnits="userSpaceOnUse">
      <stop stop-color="#24153f"/>
      <stop offset="0.54" stop-color="#100d19"/>
      <stop offset="1" stop-color="#111d36"/>
    </linearGradient>
    <linearGradient id="mark" x1="38" y1="40" x2="132" y2="136" gradientUnits="userSpaceOnUse">
      <stop stop-color="#9f7aea"/>
      <stop offset="1" stop-color="#5b21b6"/>
    </linearGradient>
  </defs>
  <rect width="440" height="280" fill="url(#bg)"/>
  <circle cx="392" cy="25" r="120" fill="#7c3aed" opacity="0.09"/>
  <circle cx="425" cy="280" r="150" fill="#2563eb" opacity="0.08"/>
  <rect x="36" y="38" width="76" height="76" rx="19" fill="url(#mark)"/>
  <path d="M55 58h22c12 0 19 5 19 15 0 6-3 10-8 13 6 2 10 7 10 14 0 11-8 17-21 17H55V58Zm21 23c5 0 8-2 8-7 0-4-3-7-8-7h-9v14h9Zm1 27c6 0 9-3 9-8s-3-8-9-8H67v16h10Z" fill="#fff"/>
  <text x="36" y="166" fill="#f5f3ff" font-family="system-ui, sans-serif" font-size="35" font-weight="760" letter-spacing="-1.3">Browser Control</text>
  <text x="38" y="199" fill="#c4b5fd" font-family="system-ui, sans-serif" font-size="16" font-weight="560">Your browser. Your signed-in state.</text>
  <text x="38" y="224" fill="#c4b5fd" font-family="system-ui, sans-serif" font-size="16" font-weight="560">Controlled by trusted local tools.</text>
  <rect x="36" y="246" width="94" height="4" rx="2" fill="#8b5cf6"/>
</svg>
